<svg xmlns="http://www.w3.org/2000/svg" width="1280" height="720" viewBox="0 0 1280 720">
  <defs>
    <linearGradient id="bg" x1="0%" y1="0%" x2="100%" y2="100%">
      <stop offset="0%" stop-color="#0D1421"/>
      <stop offset="100%" stop-color="#112028"/>
    </linearGradient>
    <linearGradient id="accent" x1="0%" y1="0%" x2="100%" y2="0%">
      <stop offset="0%" stop-color="#2DD4BF"/>
      <stop offset="100%" stop-color="#14B8A6"/>
    </linearGradient>
  </defs>
  <rect width="1280" height="720" fill="url(#bg)"/>
  <!-- Grid lines -->
  <g opacity="0.06" stroke="#2DD4BF">
    <line x1="0" y1="180" x2="1280" y2="180"/>
    <line x1="0" y1="360" x2="1280" y2="360"/>
    <line x1="0" y1="540" x2="1280" y2="540"/>
    <line x1="320" y1="0" x2="320" y2="720"/>
    <line x1="640" y1="0" x2="640" y2="720"/>
    <line x1="960" y1="0" x2="960" y2="720"/>
  </g>
  <!-- Decorative cards -->
  <rect x="60" y="80" width="280" height="140" rx="12" fill="#1a2332" stroke="#2DD4BF" stroke-opacity="0.15"/>
  <rect x="60" y="92" width="120" height="8" rx="4" fill="#2DD4BF" opacity="0.3"/>
  <rect x="60" y="112" width="200" height="24" rx="4" fill="#2DD4BF" opacity="0.12"/>
  <rect x="60" y="148" width="260" height="4" rx="2" fill="#2DD4BF" opacity="0.08"/>
  <rect x="60" y="164" width="180" height="4" rx="2" fill="#2DD4BF" opacity="0.08"/>
  <rect x="60" y="180" width="220" height="4" rx="2" fill="#2DD4BF" opacity="0.08"/>
  <rect x="380" y="80" width="280" height="140" rx="12" fill="#1a2332" stroke="#2DD4BF" stroke-opacity="0.15"/>
  <rect x="700" y="80" width="520" height="140" rx="12" fill="#1a2332" stroke="#2DD4BF" stroke-opacity="0.15"/>
  <!-- Chart area -->
  <rect x="60" y="260" width="740" height="380" rx="12" fill="#1a2332" stroke="#2DD4BF" stroke-opacity="0.1"/>
  <polyline points="100,560 200,520 300,540 400,460 500,480 600,400 700,420 760,380" fill="none" stroke="#2DD4BF" stroke-width="2" opacity="0.5"/>
  <polyline points="100,560 200,520 300,540 400,460 500,480 600,400 700,420 760,380" fill="none" stroke="#2DD4BF" stroke-width="2" opacity="0.1" stroke-dasharray="4,4" transform="translate(0,20)"/>
  <!-- Side panel -->
  <rect x="840" y="260" width="380" height="380" rx="12" fill="#1a2332" stroke="#2DD4BF" stroke-opacity="0.1"/>
  <rect x="860" y="280" width="100" height="8" rx="4" fill="#2DD4BF" opacity="0.3"/>
  <rect x="860" y="300" width="340" height="40" rx="8" fill="#2DD4BF" opacity="0.06"/>
  <rect x="860" y="352" width="340" height="40" rx="8" fill="#2DD4BF" opacity="0.06"/>
  <rect x="860" y="404" width="340" height="40" rx="8" fill="#2DD4BF" opacity="0.06"/>
  <!-- Glow orb -->
  <circle cx="640" cy="360" r="200" fill="#2DD4BF" opacity="0.02"/>
  <!-- Title -->
  <text x="640" y="690" text-anchor="middle" font-family="Inter,system-ui,sans-serif" font-size="13" fill="#2DD4BF" opacity="0.4" letter-spacing="3">DECISION ENGINE CONTROL ROOM</text>
</svg>
