<svg xmlns="http://www.w3.org/2000/svg" width="1280" height="720" viewBox="0 0 1280 720">
  <defs>
    <linearGradient id="bg" x1="0%" y1="0%" x2="100%" y2="100%">
      <stop offset="0%" stop-color="#0D1421"/>
      <stop offset="100%" stop-color="#0D1F28"/>
    </linearGradient>
  </defs>
  <rect width="1280" height="720" fill="url(#bg)"/>
  <!-- Grid -->
  <g opacity="0.05" stroke="#00D4FF">
    <line x1="0" y1="180" x2="1280" y2="180"/>
    <line x1="0" y1="360" x2="1280" y2="360"/>
    <line x1="0" y1="540" x2="1280" y2="540"/>
    <line x1="320" y1="0" x2="320" y2="720"/>
    <line x1="640" y1="0" x2="640" y2="720"/>
    <line x1="960" y1="0" x2="960" y2="720"/>
  </g>
  <!-- Sidebar -->
  <rect x="0" y="0" width="240" height="720" fill="#111827" stroke="#00D4FF" stroke-opacity="0.08"/>
  <rect x="20" y="24" width="200" height="32" rx="6" fill="#00D4FF" opacity="0.08"/>
  <rect x="20" y="72" width="200" height="28" rx="6" fill="#00D4FF" opacity="0.04"/>
  <rect x="20" y="108" width="200" height="28" rx="6" fill="#00D4FF" opacity="0.04"/>
  <rect x="20" y="144" width="200" height="28" rx="6" fill="#34d399" opacity="0.08"/>
  <rect x="20" y="180" width="200" height="28" rx="6" fill="#00D4FF" opacity="0.04"/>
  <rect x="20" y="216" width="200" height="28" rx="6" fill="#00D4FF" opacity="0.04"/>
  <rect x="20" y="252" width="200" height="28" rx="6" fill="#00D4FF" opacity="0.04"/>
  <!-- Layer cards -->
  <rect x="260" y="20" width="490" height="160" rx="12" fill="#1a2332" stroke="#34d399" stroke-opacity="0.15"/>
  <rect x="280" y="40" width="80" height="8" rx="4" fill="#34d399" opacity="0.4"/>
  <rect x="280" y="60" width="180" height="20" rx="4" fill="#34d399" opacity="0.1"/>
  <rect x="280" y="92" width="440" height="4" rx="2" fill="#34d399" opacity="0.06"/>
  <rect x="280" y="108" width="380" height="4" rx="2" fill="#34d399" opacity="0.06"/>
  <rect x="280" y="124" width="420" height="4" rx="2" fill="#34d399" opacity="0.06"/>
  <rect x="770" y="20" width="490" height="160" rx="12" fill="#1a2332" stroke="#00D4FF" stroke-opacity="0.15"/>
  <rect x="790" y="40" width="80" height="8" rx="4" fill="#00D4FF" opacity="0.4"/>
  <rect x="790" y="60" width="180" height="20" rx="4" fill="#00D4FF" opacity="0.1"/>
  <!-- Heatmap area -->
  <rect x="260" y="200" width="490" height="260" rx="12" fill="#1a2332" stroke="#34d399" stroke-opacity="0.1"/>
  <g transform="translate(280,224)">
    <rect x="0" y="0" width="60" height="40" rx="4" fill="#34d399" opacity="0.3"/>
    <rect x="68" y="0" width="60" height="40" rx="4" fill="#34d399" opacity="0.2"/>
    <rect x="136" y="0" width="60" height="40" rx="4" fill="#FF4757" opacity="0.2"/>
    <rect x="204" y="0" width="60" height="40" rx="4" fill="#34d399" opacity="0.15"/>
    <rect x="272" y="0" width="60" height="40" rx="4" fill="#34d399" opacity="0.4"/>
    <rect x="340" y="0" width="60" height="40" rx="4" fill="#FF4757" opacity="0.15"/>
    <rect x="0" y="48" width="60" height="40" rx="4" fill="#FF4757" opacity="0.3"/>
    <rect x="68" y="48" width="60" height="40" rx="4" fill="#34d399" opacity="0.25"/>
    <rect x="136" y="48" width="60" height="40" rx="4" fill="#34d399" opacity="0.35"/>
    <rect x="204" y="48" width="60" height="40" rx="4" fill="#FF4757" opacity="0.1"/>
    <rect x="272" y="48" width="60" height="40" rx="4" fill="#34d399" opacity="0.2"/>
    <rect x="340" y="48" width="60" height="40" rx="4" fill="#34d399" opacity="0.15"/>
    <rect x="0" y="96" width="60" height="40" rx="4" fill="#34d399" opacity="0.1"/>
    <rect x="68" y="96" width="60" height="40" rx="4" fill="#FF4757" opacity="0.25"/>
    <rect x="136" y="96" width="60" height="40" rx="4" fill="#34d399" opacity="0.2"/>
    <rect x="204" y="96" width="60" height="40" rx="4" fill="#34d399" opacity="0.3"/>
    <rect x="272" y="96" width="60" height="40" rx="4" fill="#FF4757" opacity="0.2"/>
    <rect x="340" y="96" width="60" height="40" rx="4" fill="#34d399" opacity="0.45"/>
  </g>
  <!-- Asset table -->
  <rect x="770" y="200" width="490" height="260" rx="12" fill="#1a2332" stroke="#00D4FF" stroke-opacity="0.1"/>
  <rect x="790" y="220" width="100" height="8" rx="4" fill="#00D4FF" opacity="0.3"/>
  <rect x="790" y="244" width="450" height="24" rx="4" fill="#00D4FF" opacity="0.04"/>
  <rect x="790" y="276" width="450" height="24" rx="4" fill="#34d399" opacity="0.06"/>
  <rect x="790" y="308" width="450" height="24" rx="4" fill="#00D4FF" opacity="0.04"/>
  <rect x="790" y="340" width="450" height="24" rx="4" fill="#FF4757" opacity="0.04"/>
  <rect x="790" y="372" width="450" height="24" rx="4" fill="#00D4FF" opacity="0.04"/>
  <!-- Bottom chart -->
  <rect x="260" y="480" width="1000" height="220" rx="12" fill="#1a2332" stroke="#34d399" stroke-opacity="0.1"/>
  <polyline points="300,640 400,620 500,600 580,630 660,580 740,590 820,550 900,560 1000,520 1100,540 1200,500" fill="none" stroke="#34d399" stroke-width="2" opacity="0.5"/>
  <!-- Glow -->
  <circle cx="640" cy="360" r="200" fill="#00D4FF" opacity="0.015"/>
  <text x="640" y="690" text-anchor="middle" font-family="Inter,system-ui,sans-serif" font-size="13" fill="#34d399" opacity="0.4" letter-spacing="3">CAPITAL FLOW + ASSET ANALYSIS</text>
</svg>
